<svg width="120" height="120" viewBox="0 0 120 120" fill="none" xmlns="http://www.w3.org/2000/svg">
<path d="M116.295 45L60.0449 3.75L3.79492 45" stroke="#D3D2D1" stroke-width="3" stroke-linecap="round" stroke-linejoin="round"/>
<path fill-rule="evenodd" clip-rule="evenodd" d="M30.0449 78.75C38.3292 78.75 45.0449 72.0343 45.0449 63.75C45.0449 55.4657 38.3292 48.75 30.0449 48.75C21.7607 48.75 15.0449 55.4657 15.0449 63.75C15.0449 72.0343 21.7607 78.75 30.0449 78.75Z" stroke="#D3D2D1" stroke-width="3" stroke-linecap="round" stroke-linejoin="round"/>
<path d="M37.5449 87.5301C30.6572 85.0949 23.016 86.1554 17.0518 90.3741C11.0875 94.5928 7.54272 101.445 7.54492 108.75" stroke="#D3D2D1" stroke-width="3" stroke-linecap="round" stroke-linejoin="round"/>
<path d="M112.545 108.75C112.547 101.445 109.002 94.5928 103.038 90.3741C97.0738 86.1554 89.4326 85.0949 82.5449 87.5301" stroke="#D3D2D1" stroke-width="3" stroke-linecap="round" stroke-linejoin="round"/>
<path fill-rule="evenodd" clip-rule="evenodd" d="M90.0449 78.75C98.3292 78.75 105.045 72.0343 105.045 63.75C105.045 55.4657 98.3292 48.75 90.0449 48.75C81.7607 48.75 75.0449 55.4657 75.0449 63.75C75.0449 72.0343 81.7607 78.75 90.0449 78.75Z" stroke="#D3D2D1" stroke-width="3" stroke-linecap="round" stroke-linejoin="round"/>
<path d="M105.045 63.75C105.045 63.75 105.045 82.5 116.295 82.5" stroke="#D3D2D1" stroke-width="3" stroke-linecap="round" stroke-linejoin="round"/>
<path fill-rule="evenodd" clip-rule="evenodd" d="M60.0449 101.25C66.2581 101.25 71.2949 96.2132 71.2949 90C71.2949 83.7868 66.2581 78.75 60.0449 78.75C53.8317 78.75 48.7949 83.7868 48.7949 90C48.7949 96.2132 53.8317 101.25 60.0449 101.25Z" stroke="#D3D2D1" stroke-width="3" stroke-linecap="round" stroke-linejoin="round"/>
<path d="M79.5295 116.25C75.5094 109.291 68.0832 105.005 60.047 105.005C52.0107 105.005 44.5845 109.291 40.5645 116.25" stroke="#D3D2D1" stroke-width="3" stroke-linecap="round" stroke-linejoin="round"/>
</svg>
