<svg width="64" height="62" viewBox="0 0 64 62" fill="none" xmlns="http://www.w3.org/2000/svg">
<path d="M2 37.6664H44C47.7916 37.4985 50.9642 34.733 51.648 30.9998C51.809 30.3082 52.3245 29.7539 53.0025 29.5432C53.6806 29.3326 54.4195 29.4972 54.944 29.9758C58.7067 33.4184 64.1973 40.4504 59.4373 49.3598" stroke="#E8EAEE" stroke-width="3" stroke-linecap="round" stroke-linejoin="round"/>
<path fill-rule="evenodd" clip-rule="evenodd" d="M22 15.6665C25.866 15.6665 29 12.5325 29 8.6665C29 4.80051 25.866 1.6665 22 1.6665C18.134 1.6665 15 4.80051 15 8.6665C15 12.5325 18.134 15.6665 22 15.6665Z" stroke="#E8EAEE" stroke-width="3" stroke-linecap="round" stroke-linejoin="round"/>
<path d="M5.52832 37.6666L12.4217 23.8772C13.1918 22.3372 14.8611 21.4628 16.5657 21.7066L23.523 22.6986C26.8877 23.1821 30.2993 22.2126 32.907 20.0319L37.2777 16.3919C38.9772 14.9773 41.5017 15.2083 42.9163 16.9079C44.3309 18.6075 44.0999 21.132 42.4003 22.5466L38.0243 26.1999C33.6704 29.8063 27.9981 31.4105 22.4003 30.6186L18.299 30.0346L14.4723 37.6666" stroke="#E8EAEE" stroke-width="3" stroke-linecap="round" stroke-linejoin="round"/>
<path d="M41.3008 15.7492L45.9994 3.6665" stroke="#E8EAEE" stroke-width="3" stroke-linecap="round" stroke-linejoin="round"/>
<path d="M32.7783 37.6663L36.9063 27.0503" stroke="#E8EAEE" stroke-width="3" stroke-linecap="round" stroke-linejoin="round"/>
<path d="M2 59.6663C5.94843 59.6597 9.65938 57.7795 12 54.5996C14.3351 57.7864 18.0493 59.6693 22 59.6693C25.9507 59.6693 29.6649 57.7864 32 54.5996C34.3351 57.7864 38.0493 59.6693 42 59.6693C45.9507 59.6693 49.6649 57.7864 52 54.5996C54.3406 57.7795 58.0516 59.6597 62 59.6663" stroke="#E8EAEE" stroke-width="3" stroke-linecap="round" stroke-linejoin="round"/>
</svg>
