<svg width="68" height="68" viewBox="0 0 68 68" fill="none" xmlns="http://www.w3.org/2000/svg">
<path fill-rule="evenodd" clip-rule="evenodd" d="M58.9672 36.2461L33.6926 44.7428L30.305 41.3777L25.282 43.0673C24.602 43.2951 24.0823 43.8496 23.899 44.5429C23.7156 45.2361 23.8933 45.9751 24.3718 46.5092L31.1668 54.1155C32.306 55.392 34.0973 55.8645 35.7177 55.3159L43.1613 52.8156L41.6538 63.568C41.5504 64.3001 41.8335 65.0336 42.4019 65.5065C42.9703 65.9794 43.7431 66.1241 44.4441 65.8891L48.3152 64.5863C48.9145 64.384 49.3936 63.9268 49.6236 63.3376L55.2952 48.7365L62.3718 46.3585C65.164 45.4159 66.6635 42.388 65.721 39.5955C64.7785 36.8031 61.7509 35.3035 58.9586 36.2461H58.9672Z" stroke="#E8EAEE" stroke-width="3" stroke-linecap="round" stroke-linejoin="round"/>
<path d="M51.8902 38.6271L43.983 33.1798C43.4298 32.8003 42.7306 32.7024 42.0944 32.9153L38.2887 34.1953C37.5875 34.4299 37.058 35.0113 36.8898 35.7314C36.7217 36.4515 36.939 37.2074 37.4639 37.7282L41.7787 42.0235" stroke="#E8EAEE" stroke-width="3" stroke-linecap="round" stroke-linejoin="round"/>
<path d="M16.9365 50.8758C5.36798 45.573 -0.548951 32.5765 3.04733 20.3683C6.64361 8.16018 18.661 0.447686 31.2566 2.26426C43.8521 4.08083 53.2009 14.8748 53.2016 27.6017" stroke="#E8EAEE" stroke-width="3" stroke-linecap="round" stroke-linejoin="round"/>
<path d="M11.3186 7.84619L26.3394 13.5353C28.2994 14.2702 29.4368 16.3186 29.0245 18.371L28.1314 22.8199C27.808 24.4367 26.5821 25.7225 24.9827 26.1224L19.0694 27.6016L15.7984 35.8053C15.159 37.4088 14.047 38.7799 12.6099 39.7364L7.39062 43.312" stroke="#E8EAEE" stroke-width="3" stroke-linecap="round" stroke-linejoin="round"/>
<path d="M45.3798 9.16602L41.1926 17.4863C40.6861 18.4981 40.6022 19.6697 40.9594 20.7433L42.5353 25.4681" stroke="#E8EAEE" stroke-width="3" stroke-linecap="round" stroke-linejoin="round"/>
</svg>
