<svg width="68" height="66" viewBox="0 0 68 66" fill="none" xmlns="http://www.w3.org/2000/svg">
<path fill-rule="evenodd" clip-rule="evenodd" d="M23.3327 32.6456C29.2237 32.6456 33.9993 28.0742 33.9993 22.4351C33.9993 16.796 29.2237 12.2246 23.3327 12.2246C17.4416 12.2246 12.666 16.796 12.666 22.4351C12.666 28.0742 17.4416 32.6456 23.3327 32.6456Z" stroke="#E8EAEE" stroke-width="2.925" stroke-linecap="round" stroke-linejoin="round"/>
<path d="M19.4307 59.1932C13.2754 49.7587 2 30.6337 2 22.4354C1.99349 12.3489 9.68107 3.76881 20.0961 2.23826C30.5112 0.707715 40.5335 6.68528 43.6882 16.3091" stroke="#E8EAEE" stroke-width="2.925" stroke-linecap="round" stroke-linejoin="round"/>
<path fill-rule="evenodd" clip-rule="evenodd" d="M33.2894 40.814H49.645C50.4304 40.814 51.0672 41.4235 51.0672 42.1754V63.277H31.8672V42.1754C31.8672 41.4235 32.5039 40.814 33.2894 40.814Z" stroke="#E8EAEE" stroke-width="2.925" stroke-linecap="round" stroke-linejoin="round"/>
<path d="M51.0665 63.2774H65.9999V26.5196C65.9999 25.3918 65.0447 24.4775 63.8665 24.4775H44.6665C43.4883 24.4775 42.5332 25.3918 42.5332 26.5196V40.8143" stroke="#E8EAEE" stroke-width="2.925" stroke-linecap="round" stroke-linejoin="round"/>
<path d="M31.8672 63.2773H27.6006" stroke="#E8EAEE" stroke-width="2.925" stroke-linecap="round" stroke-linejoin="round"/>
<path d="M42.5332 48.9824H51.0665" stroke="#E8EAEE" stroke-width="2.925" stroke-linecap="round" stroke-linejoin="round"/>
<path d="M59.6006 32.646H66.0006" stroke="#E8EAEE" stroke-width="2.925" stroke-linecap="round" stroke-linejoin="round"/>
<path d="M59.6006 40.814H66.0006" stroke="#E8EAEE" stroke-width="2.925" stroke-linecap="round" stroke-linejoin="round"/>
</svg>
