<svg width="120" height="120" viewBox="0 0 120 120" fill="none" xmlns="http://www.w3.org/2000/svg">
<path fill-rule="evenodd" clip-rule="evenodd" d="M26.2559 3.75L4.05592 84.15C3.39493 86.4163 3.83952 88.8615 5.25592 90.75C6.67233 92.6385 8.89524 93.75 11.2559 93.75H41.2559C43.6166 93.75 45.8395 92.6385 47.2559 90.75C48.6723 88.8615 49.1169 86.4163 48.4559 84.15L26.2559 3.75Z" stroke="url(#paint0_linear_404_4987)" stroke-width="3" stroke-linecap="round" stroke-linejoin="round"/>
<path d="M26.2564 86.25C26.2564 75 18.7564 63.75 11.2564 63.75H9.69141" stroke="url(#paint1_linear_404_4987)" stroke-width="3" stroke-linecap="round" stroke-linejoin="round"/>
<path d="M26.2559 86.25C26.2559 75 33.7559 63.75 41.2559 63.75H42.8209" stroke="url(#paint2_linear_404_4987)" stroke-width="3" stroke-linecap="round" stroke-linejoin="round"/>
<path d="M26.2559 52.5V116.25" stroke="url(#paint3_linear_404_4987)" stroke-width="3" stroke-linecap="round" stroke-linejoin="round"/>
<path fill-rule="evenodd" clip-rule="evenodd" d="M86.2559 78.75C102.824 78.75 116.256 65.3185 116.256 48.75C116.256 32.1815 102.824 18.75 86.2559 18.75C69.6873 18.75 56.2559 32.1815 56.2559 48.75C56.2559 65.3185 69.6873 78.75 86.2559 78.75Z" stroke="url(#paint4_linear_404_4987)" stroke-width="3" stroke-linecap="round" stroke-linejoin="round"/>
<path d="M86.2559 116.25V41.25" stroke="url(#paint5_linear_404_4987)" stroke-width="3" stroke-linecap="round" stroke-linejoin="round"/>
<path d="M86.2559 67.5C86.2559 56.25 93.7559 52.5 97.5059 52.5" stroke="url(#paint6_linear_404_4987)" stroke-width="3" stroke-linecap="round" stroke-linejoin="round"/>
<path d="M86.2559 67.5C86.2559 56.25 78.7559 52.5 75.0059 52.5" stroke="url(#paint7_linear_404_4987)" stroke-width="3" stroke-linecap="round" stroke-linejoin="round"/>
<defs>
<linearGradient id="paint0_linear_404_4987" x1="26.2559" y1="3.75" x2="26.2559" y2="93.75" gradientUnits="userSpaceOnUse">
<stop stop-color="#0D322E"/>
<stop offset="0.489583" stop-color="#1D5246"/>
<stop offset="1" stop-color="#505A46"/>
</linearGradient>
<linearGradient id="paint1_linear_404_4987" x1="17.9739" y1="63.75" x2="17.9739" y2="86.25" gradientUnits="userSpaceOnUse">
<stop stop-color="#0D322E"/>
<stop offset="0.489583" stop-color="#1D5246"/>
<stop offset="1" stop-color="#505A46"/>
</linearGradient>
<linearGradient id="paint2_linear_404_4987" x1="34.5384" y1="63.75" x2="34.5384" y2="86.25" gradientUnits="userSpaceOnUse">
<stop stop-color="#0D322E"/>
<stop offset="0.489583" stop-color="#1D5246"/>
<stop offset="1" stop-color="#505A46"/>
</linearGradient>
<linearGradient id="paint3_linear_404_4987" x1="28.7559" y1="52.5" x2="28.7559" y2="116.25" gradientUnits="userSpaceOnUse">
<stop stop-color="#0D322E"/>
<stop offset="0.489583" stop-color="#1D5246"/>
<stop offset="1" stop-color="#505A46"/>
</linearGradient>
<linearGradient id="paint4_linear_404_4987" x1="86.2559" y1="18.75" x2="86.2559" y2="78.75" gradientUnits="userSpaceOnUse">
<stop stop-color="#0D322E"/>
<stop offset="0.489583" stop-color="#1D5246"/>
<stop offset="1" stop-color="#505A46"/>
</linearGradient>
<linearGradient id="paint5_linear_404_4987" x1="88.7559" y1="41.25" x2="88.7559" y2="116.25" gradientUnits="userSpaceOnUse">
<stop stop-color="#0D322E"/>
<stop offset="0.489583" stop-color="#1D5246"/>
<stop offset="1" stop-color="#505A46"/>
</linearGradient>
<linearGradient id="paint6_linear_404_4987" x1="91.8809" y1="52.5" x2="91.8809" y2="67.5" gradientUnits="userSpaceOnUse">
<stop stop-color="#0D322E"/>
<stop offset="0.489583" stop-color="#1D5246"/>
<stop offset="1" stop-color="#505A46"/>
</linearGradient>
<linearGradient id="paint7_linear_404_4987" x1="80.6309" y1="52.5" x2="80.6309" y2="67.5" gradientUnits="userSpaceOnUse">
<stop stop-color="#0D322E"/>
<stop offset="0.489583" stop-color="#1D5246"/>
<stop offset="1" stop-color="#505A46"/>
</linearGradient>
</defs>
</svg>
